<svg width="80" height="80" viewBox="0 0 80 80" fill="none" xmlns="http://www.w3.org/2000/svg">
<path d="M10 20L15 20L15 25L10 25L10 30L15 30L15 35L20 35L20 30L25 30L25 25L20 25L20 20L25 20L25 25L30 25L30 20L35 20L35 25L30 25L30 30L35 30L35 35L40 35L40 30L45 30L45 25L40 25L40 20L45 20L45 25L50 25L50 20L55 20L55 25L50 25L50 30L55 30L55 35L60 35L60 30L65 30L65 25L60 25L60 20L65 20L65 25L70 25L70 20L75 20L75 25L70 25L70 30L75 30L75 35L80 35L80 0L-3.0598e-06 6.99382e-06L-2.18557e-06 10L5 10L5 15L-1.74846e-06 15L-1.31134e-06 20L5 20L5 25L10 25L10 20ZM65 10L65 15L60 15L60 10L65 10ZM45 10L45 15L40 15L40 10L45 10ZM20 10L25 10L25 15L20 15L20 10Z" fill="black"/>
<path d="M70 30L65 30L65 35L60 35L60 40L65 40L65 45L70 45L70 40L75 40L75 35L70 35L70 30Z" fill="black"/>
<path d="M80 45L75 45L75 40L80 40L80 45Z" fill="black"/>
<path d="M60 45L55 45L55 40L60 40L60 45Z" fill="black"/>
<path d="M40 45L35 45L35 40L40 40L40 45Z" fill="black"/>
<path d="M20 45L15 45L15 40L20 40L20 45Z" fill="black"/>
<path d="M5 50L0 50L-4.37114e-07 45L5 45L5 50Z" fill="black"/>
<path d="M15 50L10 50L10 45L15 45L15 50Z" fill="black"/>
<path d="M25 50L20 50L20 45L25 45L25 50Z" fill="black"/>
<path d="M35 50L30 50L30 45L35 45L35 50Z" fill="black"/>
<path d="M45 50L40 50L40 45L45 45L45 50Z" fill="black"/>
<path d="M55 50L50 50L50 45L55 45L55 50Z" fill="black"/>
<path d="M65 50L60 50L60 45L65 45L65 50Z" fill="black"/>
<path d="M10 55L5 55L5 50L10 50L10 55Z" fill="black"/>
<path d="M30 55L25 55L25 50L30 50L30 55Z" fill="black"/>
<path d="M50 55L45 55L45 50L50 50L50 55Z" fill="black"/>
<path d="M70 55L65 55L65 50L70 50L70 55Z" fill="black"/>
<path d="M5 70L0 70L-4.37114e-07 65L5 65L5 70Z" fill="black"/>
<path d="M25 70L20 70L20 65L25 65L25 70Z" fill="black"/>
<path d="M45 70L40 70L40 65L45 65L45 70Z" fill="black"/>
<path d="M65 70L60 70L60 65L65 65L65 70Z" fill="black"/>
<path d="M15 80L10 80L10 75L15 75L15 80Z" fill="black"/>
<path d="M35 80L30 80L30 75L35 75L35 80Z" fill="black"/>
<path d="M55 80L50 80L50 75L55 75L55 80Z" fill="black"/>
<path d="M75 80L70 80L70 75L75 75L75 80Z" fill="black"/>
<path d="M75 50L70 50L70 45L75 45L75 50Z" fill="black"/>
<path d="M5 60L0 60L-4.37114e-07 55L5 55L5 60Z" fill="black"/>
<path d="M15 60L10 60L10 55L15 55L15 60Z" fill="black"/>
<path d="M25 60L20 60L20 55L25 55L25 60Z" fill="black"/>
<path d="M35 60L30 60L30 55L35 55L35 60Z" fill="black"/>
<path d="M45 60L40 60L40 55L45 55L45 60Z" fill="black"/>
<path d="M55 60L50 60L50 55L55 55L55 60Z" fill="black"/>
<path d="M65 60L60 60L60 55L65 55L65 60Z" fill="black"/>
<path d="M75 60L70 60L70 55L75 55L75 60Z" fill="black"/>
<path d="M10 40L15 40L15 35L10 35L10 30L5 30L5 35L-8.74228e-07 35L-4.37114e-07 40L5 40L5 45L10 45L10 40Z" fill="black"/>
<path d="M25 40L25 45L30 45L30 40L35 40L35 35L30 35L30 30L25 30L25 35L20 35L20 40L25 40Z" fill="black"/>
<path d="M45 40L45 45L50 45L50 40L55 40L55 35L50 35L50 30L45 30L45 35L40 35L40 40L45 40Z" fill="black"/>
<path d="M5 30L0 30L-4.37114e-07 25L5 25L5 30Z" fill="black"/>
</svg>
